# xmcd
#
# Track frame offsets: 
#        150
#        21675
#        41550
#        62625
#        82725
#        110250
#        135600
#        149925
#        172050
#        199800
#        225225
#        249600
#        273000
#        296325
#
# Disc length: 4322 seconds
#
# Revision: 2
# Processed by: cddbd v1.5.2PL0 Copyright (c) Steve Scherf et al.
# Submitted via: ExactAudioCopy v1.3
#
DISCID=c910e00e
DTITLE=CHAGE&ASKA - 倆心知〜原創紀念歌集[CD-0117]
DYEAR=1995
DGENRE=JPop
TTITLE0=SAY YES
TTITLE1=男と女
TTITLE2=伝わりますか
TTITLE3=はじまりはいつも雨
TTITLE4=熱い想い
TTITLE5=終章(Epilogue)〜追想の主題
TTITLE6=夢から夢へ
TTITLE7=MOON LIGHT BLUES
TTITLE8=GUYS
TTITLE9=PRIDE
TTITLE10=僕はこの瞳で嘘をつく
TTITLE11=no no darlin'
TTITLE12=今夜ちょっとさ
TTITLE13=You Are Free
EXTD=YEAR: 1995
EXTT0=
EXTT1=
EXTT2=
EXTT3=
EXTT4=
EXTT5=
EXTT6=
EXTT7=
EXTT8=
EXTT9=
EXTT10=
EXTT11=
EXTT12=
EXTT13=
PLAYORDER=
